<svg id="Layer_1" data-name="Layer 1" xmlns="http://www.w3.org/2000/svg" viewBox="0 0 413.61 439.01"><defs><style>.cls-1{fill:#f3aa4e;}</style></defs><title>A</title><ellipse class="cls-1" cx="167.1" cy="111.51" rx="83.51" ry="86.9"/><path class="cls-1" d="M408.76,496.41c-6.13-117.83-78.6-210.85-167.11-210.85s-161,93-167.1,210.85Z" transform="translate(-74.55 -57.4)"/><path class="cls-1" d="M416.87,248.11H403.58a45.81,45.81,0,0,0-6.48-16.21l9.23-9.23a.8.8,0,0,0,0-1.11l-11.26-11.25a.78.78,0,0,0-1.11,0l-9,9a43.61,43.61,0,0,0-16.46-7.08V199.77a.78.78,0,0,0-.78-.78H351.82a.79.79,0,0,0-.79.78v12.44a43.67,43.67,0,0,0-16.46,7.08l-9-9a.78.78,0,0,0-1.11,0l-11.25,11.25a.78.78,0,0,0,0,1.11l9.22,9.23A45.8,45.8,0,0,0,316,248.11H302.69a.8.8,0,0,0-.79.79v15.92a.79.79,0,0,0,.79.78H316a45.92,45.92,0,0,0,6.47,16.22L313.23,291a.78.78,0,0,0,0,1.11l11.25,11.26a.8.8,0,0,0,1.11,0l9-9A44,44,0,0,0,351,301.51V314a.79.79,0,0,0,.79.78h15.92a.78.78,0,0,0,.78-.78V301.51A43.92,43.92,0,0,0,385,294.43l9,9a.8.8,0,0,0,1.11,0l11.26-11.26a.8.8,0,0,0,0-1.11l-9.23-9.22a45.94,45.94,0,0,0,6.48-16.22h13.29a.78.78,0,0,0,.78-.78V248.9A.79.79,0,0,0,416.87,248.11Zm-57.09,39.15c-16.46,0-29.81-13.61-29.81-30.4s13.35-30.41,29.81-30.41,29.8,13.62,29.8,30.41S376.24,287.26,359.78,287.26Z" transform="translate(-74.55 -57.4)"/><path class="cls-1" d="M487.29,153.64l-16.67-7a62.19,62.19,0,0,0,.43-23.76l16.44-6.7a1.07,1.07,0,0,0,.59-1.39L479.9,94.72a1.08,1.08,0,0,0-1.4-.59l-16,6.53a59.71,59.71,0,0,0-16.92-17.57l6.56-15.6a1.06,1.06,0,0,0-.57-1.39l-20-8.4a1.06,1.06,0,0,0-1.39.57l-6.56,15.6a59.78,59.78,0,0,0-24.39.2l-6.52-16a1.07,1.07,0,0,0-1.39-.59L371.3,65.67a1.06,1.06,0,0,0-.59,1.39l6.71,16.44a62.21,62.21,0,0,0-16.68,16.92l-16.67-7a1.06,1.06,0,0,0-1.39.57l-8.4,20a1.06,1.06,0,0,0,.57,1.39l16.67,7a62.19,62.19,0,0,0-.43,23.76l-16.44,6.7a1.07,1.07,0,0,0-.59,1.39l8.19,20.06a1.06,1.06,0,0,0,1.39.59l16-6.53a59.71,59.71,0,0,0,16.92,17.57L370,201.49a1.06,1.06,0,0,0,.57,1.39l20,8.4a1.06,1.06,0,0,0,1.39-.57l6.57-15.6a59.74,59.74,0,0,0,24.38-.2l6.52,16a1.08,1.08,0,0,0,1.4.59l20-8.19a1.06,1.06,0,0,0,.59-1.39l-6.71-16.44a62.21,62.21,0,0,0,16.68-16.92l16.67,7a1.06,1.06,0,0,0,1.39-.57l8.4-20A1.06,1.06,0,0,0,487.29,153.64Zm-92.26,19c-20.64-8.69-30.2-32.8-21.34-53.86s32.77-31.1,53.42-22.42,30.2,32.8,21.34,53.86S415.68,181.31,395,172.63Z" transform="translate(-74.55 -57.4)"/></svg>