<svg xmlns="http://www.w3.org/2000/svg" viewBox="0 0 497.17 472.5"><defs><style>.cls-1{fill:none;stroke:#f3aa4e;stroke-miterlimit:10;stroke-width:6px;}.cls-2{fill:#f3aa4e;}</style></defs><title>M</title><g id="Square"><path class="cls-1" d="M456.67,81.55v-17a44.39,44.39,0,0,0-44.25-44.25H57.58A44.39,44.39,0,0,0,13.33,64.58v378a44.38,44.38,0,0,0,44.25,44.25H412.42a44.38,44.38,0,0,0,44.25-44.25V186.42" transform="translate(-10.33 -17.33)"/></g><g id="pen"><polygon class="cls-2" points="469.67 62.33 497.17 89.83 245.67 356.33 219 356.33 219 329.67 469.67 62.33"/></g><g id="Layer_5" data-name="Layer 5"><polygon class="cls-2" points="358.08 120.17 358.08 141.67 338.67 161.17 161.17 161.17 161.17 120.17 358.08 120.17"/><polygon class="cls-2" points="358.08 315.67 358.08 356.33 285.17 356.33 324.67 315.67 358.08 315.67"/><rect class="cls-2" x="161.17" y="315.67" width="29.5" height="40.67"/><polygon class="cls-2" points="161.17 219.17 161.17 257.17 244.67 257.17 283.92 217.92 161.17 219.17"/><rect class="cls-2" x="94.17" y="120.17" width="38.5" height="41"/><rect class="cls-2" x="94.17" y="217.92" width="38.5" height="39.25"/><rect class="cls-2" x="94.17" y="315.67" width="38.5" height="40.67"/></g></svg>