<svg xmlns="http://www.w3.org/2000/svg" viewBox="0 0 500 408.3"><defs><style>.cls-1,.cls-2{fill:none;stroke:#f3aa4e;stroke-miterlimit:10;}.cls-1{stroke-width:6px;}.cls-2{stroke-width:3px;}</style></defs><title>RT</title><g id="Layer_2" data-name="Layer 2"><line class="cls-1" x1="3" y1="44.55" x2="3" y2="274"/><path class="cls-1" d="M256,50.45H473c16.5,0,30,12.26,30,27.26V91.94" transform="translate(-6 -47.45)"/><path class="cls-1" d="M256,50.45H39c-16.5,0-30,12.26-30,27.26V92" transform="translate(-6 -47.45)"/><line class="cls-1" x1="497" y1="44.5" x2="497" y2="274.06"/><path class="cls-1" d="M503,321.5v14.24c0,15-13.53,27.26-30.06,27.26H357" transform="translate(-6 -47.45)"/><path class="cls-1" d="M146.74,363H37.36C21.76,363,9,350.73,9,335.74V321.45" transform="translate(-6 -47.45)"/><path class="cls-1" d="M9,321.45c1.41,0,2.83.06,4.25.06C87.67,321.51,148,270.12,148,206.72S87.67,91.94,13.25,91.94c-1.42,0-2.84,0-4.25.06" transform="translate(-6 -47.45)"/><path class="cls-1" d="M503,91.94c-74.27.16-134.42,51.49-134.42,114.78S428.73,321.35,503,321.5" transform="translate(-6 -47.45)"/><path class="cls-1" d="M256,259.69c-32.19,0-58.29-23.72-58.29-53s26.1-53,58.29-53" transform="translate(-6 -47.45)"/><path class="cls-1" d="M256,259.69c32.19,0,58.29-23.72,58.29-53s-26.1-53-58.29-53" transform="translate(-6 -47.45)"/><line class="cls-1" x1="250" y1="225.55" x2="250" y2="212.24"/><line class="cls-1" x1="250" y1="3" x2="250" y2="106.31"/><line class="cls-1" x1="250" y1="212.24" x2="250" y2="106.31"/></g><g id="Clock"><path class="cls-2" d="M182.29,365.7" transform="translate(-6 -47.45)"/><path class="cls-2" d="M256.78,303.23" transform="translate(-6 -47.45)"/><polyline class="cls-2" points="176.29 318.25 176.05 318.01 160.12 333.94"/><line class="cls-2" x1="192.13" y1="334.09" x2="176.29" y2="318.25"/><path class="cls-2" d="M195.26,386.09a62.2,62.2,0,1,0,.33-17.31" transform="translate(-6 -47.45)"/><polyline class="cls-2" points="246.7 298.42 246.7 331.43 269.58 331.43"/><path class="cls-2" d="M182.29,365.43A75.53,75.53,0,1,0,184,358" transform="translate(-6 -47.45)"/><polyline class="cls-2" points="176.29 317.98 176.05 317.74 160.12 333.67"/><line class="cls-2" x1="192.13" y1="333.82" x2="176.29" y2="317.98"/><path class="cls-2" d="M184,358" transform="translate(-6 -47.45)"/><path class="cls-2" d="M324.26,412.51" transform="translate(-6 -47.45)"/></g></svg>