<svg id="Layer_2" data-name="Layer 2" xmlns="http://www.w3.org/2000/svg" viewBox="0 0 481.35 272.89"><defs><style>.cls-1{fill:#f3aa4e;}</style></defs><title>Ref</title><path class="cls-1" d="M474.82,217.92H442.38c-10.26-56.44-48.48-98.36-94.07-98.36H60.43L26.32,147.23v92.4H87.37c82.92,0,150.15,48.07,150.15,107.36a78.2,78.2,0,0,1-1.12,13.11h1A122.94,122.94,0,0,0,442.23,287h32.59c18.14,0,32.86-15.46,32.86-34.53S493,217.92,474.82,217.92Zm-149.16,124a72.89,72.89,0,1,1,72.89-72.88A72.88,72.88,0,0,1,325.66,341.93ZM470,266.57a15,15,0,1,1,15-15A15,15,0,0,1,470,266.57Z" transform="translate(-26.32 -119.56)"/></svg>