<svg xmlns="http://www.w3.org/2000/svg" xmlns:xlink="http://www.w3.org/1999/xlink" viewBox="0 0 1920.34 1200"><defs><style>.cls-1{fill:none;}.cls-2{fill:#f3aa4e;}.cls-3,.cls-4{fill:#e88014;}.cls-3{opacity:0.9;isolation:isolate;}.cls-5{fill:#fff;}.cls-6{clip-path:url(#clip-path);}</style><clipPath id="clip-path" transform="translate(0 0)"><rect class="cls-1" x="899.61" y="137.72" width="132.12" height="76.22"/></clipPath></defs><title>referee_bg</title><g id="Layer_3" data-name="Layer 3"><rect class="cls-2" x="0.34" width="1920" height="1200"/><path class="cls-3" d="M327.65,0C218.49,208.88,164.84,490.59,545.22,629.93c457.93,167.75,483,430.44,458.32,570.07H0V0Z" transform="translate(0 0)"/></g><g id="Layer_1" data-name="Layer 1"><path class="cls-4" d="M773.6,0V186.74c0,103.13,83.61,186.74,186.74,186.74s186.74-83.61,186.74-186.74V0Z" transform="translate(0 0)"/><ellipse class="cls-5" cx="960.34" cy="175.83" rx="88.66" ry="89.7"/><path class="cls-5" d="M890.94,305.22h-5.56v9.35h-3.13V291.46h7.83a9.36,9.36,0,0,1,6.14,1.78,6.31,6.31,0,0,1,2.16,5.17,6.1,6.1,0,0,1-1.2,3.76,7.1,7.1,0,0,1-3.31,2.4l5.55,9.81v.19h-3.34Zm-5.56-2.49h4.8a5.43,5.43,0,0,0,3.69-1.18,3.91,3.91,0,0,0,1.38-3.14,4.09,4.09,0,0,0-1.32-3.28,5.56,5.56,0,0,0-3.77-1.16h-4.78Zm32.43,1.16H907.56v8.19h11.91v2.49h-15V291.46h14.87V294H907.56v7.43h10.25Zm20.26.47h-9.93v10.21H925V291.46h14.66V294H928.14v7.9h9.93Zm20.38-.47H948.2v8.19h11.91v2.49h-15V291.46H960V294H948.2v7.43h10.25Zm15.89,1.33h-5.56v9.35h-3.14V291.46h7.84a9.36,9.36,0,0,1,6.14,1.78,6.31,6.31,0,0,1,2.16,5.17,6.1,6.1,0,0,1-1.2,3.76,7.08,7.08,0,0,1-3.32,2.4l5.56,9.81v.19h-3.35Zm-5.56-2.49h4.79a5.43,5.43,0,0,0,3.69-1.18,3.92,3.92,0,0,0,1.39-3.14,4.09,4.09,0,0,0-1.32-3.28,5.56,5.56,0,0,0-3.77-1.16h-4.78Zm32.43,1.16H991v8.19h11.92v2.49h-15V291.46h14.87V294H991v7.43h10.26Zm20.58,0h-10.25v8.19h11.91v2.49h-15V291.46h14.87V294h-11.75v7.43h10.25Zm14.18.38a14.89,14.89,0,0,1-5.85-2.76,5.29,5.29,0,0,1-1.82-4.07,5.54,5.54,0,0,1,2.22-4.51,9.08,9.08,0,0,1,5.82-1.79,9.88,9.88,0,0,1,4.34.92,7,7,0,0,1,3,2.54,6.39,6.39,0,0,1,1.06,3.54h-3.14a4.11,4.11,0,0,0-1.37-3.28,5.59,5.59,0,0,0-3.85-1.21,5.73,5.73,0,0,0-3.6,1,3.26,3.26,0,0,0-1.29,2.75,3,3,0,0,0,1.22,2.39,12.32,12.32,0,0,0,4.18,1.78,19.34,19.34,0,0,1,4.61,1.79,6.85,6.85,0,0,1,2.47,2.27,5.69,5.69,0,0,1,.81,3.07,5.38,5.38,0,0,1-2.24,4.51,9.74,9.74,0,0,1-6,1.68A11.36,11.36,0,0,1,1032,314a7.8,7.8,0,0,1-3.26-2.5,6,6,0,0,1-1.14-3.61h3.14a4,4,0,0,0,1.57,3.32,6.89,6.89,0,0,0,4.25,1.21,6.21,6.21,0,0,0,3.78-1,3.16,3.16,0,0,0,1.32-2.68,3.1,3.1,0,0,0-1.22-2.62A14.12,14.12,0,0,0,1036,304.27Z" transform="translate(0 0)"/><g class="cls-6"><path class="cls-2" d="M1022.71,165.19h-8.9c-2.82-15.76-13.31-27.47-25.82-27.47H909l-9.36,7.73v25.8h16.75c22.76,0,41.22,13.43,41.22,30a22.41,22.41,0,0,1-.31,3.66h.27a33.53,33.53,0,0,0,16.12,8.36,33.19,33.19,0,0,0,18-1.31,33.75,33.75,0,0,0,14.79-10.61,34.59,34.59,0,0,0,7.27-16.86h9c5,0,9-4.31,9-9.64S1027.7,165.19,1022.71,165.19Zm-40.94,34.63a19.75,19.75,0,0,1-11.12-3.43,20.19,20.19,0,0,1-7.36-9.13,20.63,20.63,0,0,1,4.33-22.19,19.87,19.87,0,0,1,10.25-5.57,19.66,19.66,0,0,1,11.56,1.16,20,20,0,0,1,9,7.5,20.61,20.61,0,0,1,1.85,19.1,20.38,20.38,0,0,1-4.33,6.6,19.8,19.8,0,0,1-14.15,6Zm39.62-21a4.08,4.08,0,0,1-2.29-.71,4.13,4.13,0,0,1-1.52-1.88,4.26,4.26,0,0,1,.89-4.56,4.06,4.06,0,0,1,4.49-.91,4.14,4.14,0,0,1,1.85,1.54,4.27,4.27,0,0,1,.69,2.33,4.18,4.18,0,0,1-.31,1.6,4.27,4.27,0,0,1-.89,1.36,4.1,4.1,0,0,1-2.91,1.23Z" transform="translate(0 0)"/></g></g></svg>