<svg id="Layer_1" data-name="Layer 1" xmlns="http://www.w3.org/2000/svg" xmlns:xlink="http://www.w3.org/1999/xlink" viewBox="0 0 1920.67 1200"><defs><style>.cls-1{fill:none;}.cls-2{fill:#f3aa4e;}.cls-3{fill:#e88014;}.cls-4{fill:#fff;}.cls-5{clip-path:url(#clip-path);}.cls-6{fill:#e9841a;}</style><clipPath id="clip-path" transform="translate(-0.23 0)"><rect class="cls-1" x="893.96" y="120.15" width="134.55" height="91.93"/></clipPath></defs><title>teams_bg</title><rect class="cls-2" x="0.67" width="1920" height="1200"/><path class="cls-3" d="M774.17,0V186.74c0,103.13,83.6,186.74,186.74,186.74s186.74-83.61,186.74-186.74V0Z" transform="translate(-0.23 0)"/><circle class="cls-4" cx="960.67" cy="175.83" r="88.82"/><g class="cls-5"><path class="cls-2" d="M922.76,170.05c8.08,0,14.63-6.81,14.63-15.22s-6.55-15.21-14.63-15.21-14.62,6.81-14.62,15.21S914.69,170.05,922.76,170.05Z" transform="translate(-0.23 0)"/><path class="cls-2" d="M961,150.58c8.07,0,14.62-6.81,14.62-15.21s-6.55-15.22-14.62-15.22-14.62,6.81-14.62,15.22S952.93,150.58,961,150.58Z" transform="translate(-0.23 0)"/><path class="cls-2" d="M999.25,170.05c8.08,0,14.62-6.81,14.62-15.22s-6.54-15.21-14.62-15.21-14.62,6.81-14.62,15.21S991.18,170.05,999.25,170.05Z" transform="translate(-0.23 0)"/><path class="cls-2" d="M952.48,212.09c-1.07-20.64-13.76-36.92-29.26-36.92S895,191.45,894,212.09Z" transform="translate(-0.23 0)"/><path class="cls-2" d="M990.27,192.71c-1.07-20.63-13.76-36.92-29.26-36.92s-28.19,16.29-29.26,36.92Z" transform="translate(-0.23 0)"/><path class="cls-2" d="M1028.51,212.09c-1.07-20.64-13.76-36.92-29.26-36.92S971.07,191.45,970,212.09Z" transform="translate(-0.23 0)"/></g><path class="cls-4" d="M922.09,294h-7.43v20.6h-3V294h-7.42v-2.51h17.88Zm18.12,9.92h-10v8.19h11.63v2.49H927.14V291.46h14.53V294H930.19v7.43h10Zm19.8,4.65h-9.69l-2.17,6H945l8.82-23.11h2.67l8.84,23.11h-3.13ZM951.24,306h7.86l-3.94-10.81ZM974,291.46l7.56,18.86,7.55-18.86h4v23.11H990v-9l.28-9.71-7.58,18.71h-2.34l-7.57-18.67.3,9.67v9h-3V291.46Zm32.88,12.81a14.43,14.43,0,0,1-5.71-2.76,5.32,5.32,0,0,1-1.78-4.07,5.59,5.59,0,0,1,2.18-4.51,8.7,8.7,0,0,1,5.68-1.79,9.5,9.5,0,0,1,4.24.92,6.94,6.94,0,0,1,2.88,2.54,6.45,6.45,0,0,1,1,3.54h-3.07a4.15,4.15,0,0,0-1.33-3.28,5.38,5.38,0,0,0-3.76-1.21,5.55,5.55,0,0,0-3.53,1,3.31,3.31,0,0,0-1.25,2.75,3,3,0,0,0,1.19,2.39,11.82,11.82,0,0,0,4.08,1.78,18.7,18.7,0,0,1,4.51,1.79,6.8,6.8,0,0,1,2.41,2.27,5.77,5.77,0,0,1,.79,3.07,5.44,5.44,0,0,1-2.19,4.51,9.37,9.37,0,0,1-5.85,1.68A10.87,10.87,0,0,1,1003,314a7.64,7.64,0,0,1-3.19-2.5,6.15,6.15,0,0,1-1.11-3.61h3.06a4,4,0,0,0,1.54,3.32,6.63,6.63,0,0,0,4.15,1.21,6,6,0,0,0,3.7-1,3.2,3.2,0,0,0,1.28-2.68,3.13,3.13,0,0,0-1.19-2.62A13.53,13.53,0,0,0,1006.89,304.27Z" transform="translate(-0.23 0)"/><path class="cls-6" d="M.23,434.08s147.86-126.36,380.51,0c217.22,88.25,195,562.14,567,576.05,372.55-18.19,393.48-475,570-576,220.74-126.36,400,0,400,0V1200H.23Z" transform="translate(-0.23 0)"/></svg>