<svg id="Layer_1" data-name="Layer 1" xmlns="http://www.w3.org/2000/svg" viewBox="0 0 1920 1200"><defs><style>.cls-1{fill:#f3aa4e;}.cls-2{fill:#fff;}.cls-3{fill:#e9841a;}.cls-4{fill:#e88014;isolation:isolate;}</style></defs><title>League</title><rect class="cls-1" width="1920" height="1200"/><rect class="cls-2" width="482.11" height="720.58"/><path class="cls-3" d="M49.21,299.49H54v40.7H79.07v4.09H49.21Zm69.44,40.7v4.09H86.94V299.49h30.75v4.1h-26v15.93h23.19v4H91.68v16.64Zm39.27-7.87h-25l-5.38,12h-4.94l20.5-44.79h4.68l20.5,44.79h-5Zm-1.73-3.84-10.76-24.06-10.76,24.06Zm50.49-6.59h4.55V339a21.78,21.78,0,0,1-7.43,4.22,27.42,27.42,0,0,1-9,1.48,24.69,24.69,0,0,1-12.1-2.95,21.81,21.81,0,0,1-8.46-8.12,22.73,22.73,0,0,1-3.08-11.71,22.41,22.41,0,0,1,3.08-11.65,21.63,21.63,0,0,1,8.46-8.19,24.93,24.93,0,0,1,12.17-2.94,25.86,25.86,0,0,1,9.42,1.66,18.54,18.54,0,0,1,7.24,4.8l-3,3A18.45,18.45,0,0,0,195,303.33a20.16,20.16,0,0,0-9.87,2.43,17.47,17.47,0,0,0-6.85,6.66A18.46,18.46,0,0,0,185.15,338a19.82,19.82,0,0,0,9.81,2.43A19.56,19.56,0,0,0,206.68,337Zm36,22.78q-8.72,0-13.59-5t-4.87-14.53V299.49H229V325q0,7.8,3.53,11.64t10.19,3.84q6.72,0,10.25-3.84T256.49,325V299.49h4.61v25.66q0,9.54-4.87,14.53T242.72,344.67Zm64.38-4.48v4.09H275.39V299.49h30.75v4.1h-26v15.93h23.19v4H280.13v16.64Zm23.51,4.48a29.32,29.32,0,0,1-9.61-1.6,17.71,17.71,0,0,1-7.05-4.23l1.86-3.64a18.06,18.06,0,0,0,6.47,4,24.18,24.18,0,0,0,8.33,1.48q6,0,9-2.18a6.89,6.89,0,0,0,3-5.76,5.69,5.69,0,0,0-1.67-4.29,10.55,10.55,0,0,0-4-2.43,61.84,61.84,0,0,0-6.6-1.92,73.37,73.37,0,0,1-8.07-2.43,13.81,13.81,0,0,1-5.19-3.65,9.68,9.68,0,0,1-2.12-6.59,11,11,0,0,1,1.8-6.14,12.14,12.14,0,0,1,5.51-4.48,22.52,22.52,0,0,1,9.22-1.66,26,26,0,0,1,7.5,1.09,21.19,21.19,0,0,1,6.41,2.87l-1.61,3.78a21.28,21.28,0,0,0-6-2.75,21.79,21.79,0,0,0-6.28-1q-5.9,0-8.9,2.3a7,7,0,0,0-2.95,5.83,6,6,0,0,0,1.6,4.35,11.62,11.62,0,0,0,4.1,2.49c1.67.56,3.89,1.17,6.67,1.86A61.17,61.17,0,0,1,340,322.4a12.66,12.66,0,0,1,5.19,3.58,9.35,9.35,0,0,1,2.11,6.47,11.06,11.06,0,0,1-1.85,6.2,12.35,12.35,0,0,1-5.58,4.42A24,24,0,0,1,330.61,344.67Z"/><path class="cls-3" d="M221.74,200.84V176.2H170.8V214H120.55v37.76H272.67V200.84ZM145.9,247.31a14.47,14.47,0,1,1,5.55-1.1A14.54,14.54,0,0,1,145.9,247.31Zm50.71-18.88a14.47,14.47,0,1,1,12-22.51,14.47,14.47,0,0,1-12,22.51Zm50.57,12.43a14.53,14.53,0,1,1,10.25-4.24,14.47,14.47,0,0,1-10.25,4.24Z"/><path class="cls-3" d="M223.83,94.78c.07-1.47.1-3,.1-4.45H169.6c0,1.5,0,3,.09,4.45H151.22c4.53,17.09,13.61,28.75,24.08,28.75h.15c4.1,10.25,10.1,17.47,16.92,19.65a7.38,7.38,0,0,0-3.37,5.74,7.21,7.21,0,0,0,.59,3.37,7.33,7.33,0,0,0,2.06,2.74,17,17,0,0,1,.13,2c0,6.53-3.73,11.83-8.33,11.83a6.51,6.51,0,0,1-.88-.06v7.38h28.09v-7.61a6,6,0,0,1-1.83.29c-4.6,0-8.33-5.3-8.33-11.84a15.81,15.81,0,0,1,.09-1.69,7.34,7.34,0,0,0,3.1-6,7.3,7.3,0,0,0-3.13-6c7.08-2,13.29-9.28,17.53-19.83,10.41-.11,19.41-11.74,23.93-28.75Z"/><path class="cls-4" d="M0,1200H718.81V0H479.09C489.59,202,425,400.52,193,521.13,116.91,560.7,53.2,604.13,0,649.89Z"/></svg>