<svg id="Layer_1" data-name="Layer 1" xmlns="http://www.w3.org/2000/svg" xmlns:xlink="http://www.w3.org/1999/xlink" viewBox="0 0 1920 1200"><defs><style>.cls-1{fill:none;}.cls-2{fill:#f3aa4e;}.cls-3{fill:#fff;}.cls-4{fill:#e88014;isolation:isolate;}.cls-5{fill:#e9841a;}.cls-6{clip-path:url(#clip-path);}</style><clipPath id="clip-path"><rect class="cls-1" x="78.61" y="90.13" width="236.5" height="161.59"/></clipPath></defs><title>Teams</title><rect class="cls-2" width="1920" height="1200"/><rect class="cls-3" width="482.11" height="720.58"/><path class="cls-4" d="M0,1200H718.81V0H479.09C489.59,202,425,400.52,193,521.13,116.91,560.7,53.2,604.13,0,649.89Z"/><path class="cls-5" d="M102.1,303.74H86.49v-4.06H122.4v4.06H106.79v40.35H102.1ZM161.31,340v4.06H129.9V299.68h30.46v4.06H134.6v15.8h23v4h-23V340Zm38.89-7.8H175.45l-5.33,11.86h-4.88l20.3-44.41h4.63l20.31,44.41h-4.95Zm-1.72-3.81-10.65-23.85-10.66,23.85ZM264,299.68v44.41h-4.5V308.56L242,338.45h-2.22l-17.45-29.7v35.34h-4.51V299.68h3.87L241,332.61l19.1-32.93Zm26.72,44.79a28.73,28.73,0,0,1-9.52-1.58,17.55,17.55,0,0,1-7-4.19l1.84-3.62a18,18,0,0,0,6.41,3.94,23.9,23.9,0,0,0,8.25,1.46q6,0,8.94-2.16a6.81,6.81,0,0,0,3-5.71,5.65,5.65,0,0,0-1.64-4.25A10.26,10.26,0,0,0,297,326a58.59,58.59,0,0,0-6.53-1.91,72.73,72.73,0,0,1-8-2.41,13.73,13.73,0,0,1-5.14-3.61,9.67,9.67,0,0,1-2.09-6.54,10.89,10.89,0,0,1,1.78-6.09,12.07,12.07,0,0,1,5.45-4.44,22.33,22.33,0,0,1,9.14-1.65,25.77,25.77,0,0,1,7.42,1.08,21.16,21.16,0,0,1,6.35,2.85L303.8,307a21,21,0,0,0-6-2.73,21.42,21.42,0,0,0-6.22-.95q-5.83,0-8.82,2.28a6.92,6.92,0,0,0-2.92,5.77,6,6,0,0,0,1.59,4.32,11.41,11.41,0,0,0,4.06,2.47c1.65.55,3.85,1.17,6.6,1.84a61.92,61.92,0,0,1,7.86,2.41,12.55,12.55,0,0,1,5.14,3.56,9.25,9.25,0,0,1,2.1,6.41,11,11,0,0,1-1.84,6.15,12.28,12.28,0,0,1-5.52,4.38A23.6,23.6,0,0,1,290.67,344.47Z"/><g class="cls-6"><path class="cls-5" d="M129.23,177.83c14.2,0,25.7-12,25.7-26.74s-11.5-26.74-25.7-26.74-25.69,12-25.69,26.74S115,177.83,129.23,177.83Z"/><path class="cls-5" d="M196.46,143.62c14.19,0,25.69-12,25.69-26.74s-11.5-26.75-25.69-26.75-25.7,12-25.7,26.75S182.26,143.62,196.46,143.62Z"/><path class="cls-5" d="M263.68,177.83c14.19,0,25.69-12,25.69-26.74s-11.5-26.74-25.69-26.74-25.7,12-25.7,26.74S249.48,177.83,263.68,177.83Z"/><path class="cls-5" d="M181.47,251.72c-1.89-36.26-24.19-64.89-51.43-64.89s-49.55,28.63-51.43,64.89Z"/><path class="cls-5" d="M247.89,217.67c-1.89-36.27-24.19-64.89-51.43-64.89S146.9,181.4,145,217.67Z"/><path class="cls-5" d="M315.11,251.72c-1.89-36.26-24.19-64.89-51.43-64.89s-49.55,28.63-51.43,64.89Z"/></g></svg>